<?xml version="1.0" encoding="utf-8"?>
<!-- Generator: Adobe Illustrator 24.1.3, SVG Export Plug-In . SVG Version: 6.00 Build 0)  -->
<svg version="1.1" id="Layer_1" xmlns="http://www.w3.org/2000/svg" xmlns:xlink="http://www.w3.org/1999/xlink" x="0px" y="0px"
	 viewBox="0 0 233 234" style="enable-background:new 0 0 233 234;" xml:space="preserve">
<style type="text/css">
	.st0{fill:#FCBD7C;}
	.st1{fill:#DDDDDD;}
	.st2{fill:#EEEDEE;}
	.st3{fill:#010101;}
	.st4{fill:#F68721;}
</style>
<g>
	<g>
		<path class="st0" d="M117.23,229.75c-30.14,0-58.48-11.74-79.79-33.05S4.4,147.05,4.4,116.91s11.74-58.48,33.05-79.79
			C58.76,15.81,87.09,4.08,117.23,4.08s58.48,11.74,79.79,33.05c21.31,21.31,33.05,49.65,33.05,79.79
			c0,30.14-11.74,58.48-33.05,79.79S147.37,229.75,117.23,229.75z M117.23,39.61c-42.63,0-77.31,34.68-77.31,77.31
			c0,42.63,34.68,77.31,77.31,77.31s77.31-34.68,77.31-77.31C194.54,74.29,159.86,39.61,117.23,39.61z"/>
	</g>
	<g>
		<path class="st1" d="M209.25,158.31c-1.46,0-2.94-0.18-4.42-0.55c-9.64-2.44-15.48-12.23-13.05-21.87
			c2.68-10.61,3.13-21.32,1.34-31.84c-1.67-9.8,4.92-19.1,14.72-20.78c9.8-1.67,19.1,4.92,20.78,14.72
			c2.64,15.49,1.99,31.21-1.92,46.71C224.63,152.87,217.3,158.31,209.25,158.31z"/>
	</g>
	<g>
		<path class="st2" d="M206.61,167.43c-1.48,0-2.99-0.18-4.49-0.57c-9.63-2.47-15.44-12.28-12.96-21.92
			c2.26-8.8,4.6-19.65,4.81-22.32c0.8-9.91,9.47-17.3,19.39-16.51c9.91,0.8,17.3,9.48,16.51,19.39c-0.65,8.04-5.3,26.33-5.83,28.39
			C221.95,162.03,214.64,167.43,206.61,167.43z"/>
	</g>
</g>
<g>
	<g>
		<path class="st3" d="M81.85,89.54v3.17h-1.97v-3.17l-3.03-5.19h1.73c0.19,0,0.29,0.05,0.38,0.1c0.1,0.05,0.19,0.19,0.24,0.29
			l1.2,2.45c0.1,0.19,0.19,0.38,0.29,0.53c0.1,0.14,0.14,0.34,0.19,0.48c0.05-0.14,0.14-0.34,0.19-0.48
			c0.1-0.14,0.14-0.34,0.24-0.53l1.15-2.45c0.05-0.05,0.05-0.1,0.1-0.14c0.05-0.05,0.1-0.1,0.14-0.14s0.1-0.1,0.19-0.1
			c0.05-0.05,0.14-0.05,0.24-0.05h1.73L81.85,89.54z"/>
	</g>
	<g>
		<path class="st3" d="M96.73,88.54c0,0.62-0.1,1.15-0.34,1.68c-0.19,0.53-0.53,0.96-0.86,1.34s-0.82,0.67-1.39,0.91
			c-0.53,0.24-1.15,0.34-1.78,0.34c-0.67,0-1.25-0.1-1.78-0.34c-0.53-0.24-1.01-0.53-1.39-0.91c-0.38-0.38-0.67-0.86-0.86-1.34
			c-0.19-0.48-0.34-1.1-0.34-1.68c0-0.62,0.1-1.15,0.34-1.68c0.19-0.53,0.53-0.96,0.86-1.34c0.38-0.38,0.86-0.67,1.39-0.91
			c0.53-0.24,1.15-0.34,1.78-0.34c0.67,0,1.25,0.1,1.78,0.34c0.53,0.24,1.01,0.53,1.39,0.91c0.38,0.38,0.67,0.82,0.86,1.34
			C96.64,87.34,96.73,87.91,96.73,88.54z M94.71,88.54c0-0.43-0.05-0.77-0.14-1.1c-0.1-0.34-0.24-0.62-0.48-0.86
			c-0.19-0.24-0.43-0.38-0.72-0.53c-0.29-0.14-0.62-0.19-1.01-0.19c-0.38,0-0.72,0.05-1.01,0.19c-0.29,0.14-0.53,0.29-0.72,0.53
			c-0.19,0.24-0.34,0.53-0.48,0.86c-0.1,0.34-0.14,0.72-0.14,1.1c0,0.43,0.05,0.82,0.14,1.1c0.1,0.34,0.24,0.62,0.48,0.86
			c0.19,0.24,0.43,0.38,0.72,0.53c0.29,0.14,0.62,0.19,1.01,0.19c0.38,0,0.72-0.05,1.01-0.19c0.29-0.14,0.53-0.29,0.72-0.53
			c0.19-0.24,0.34-0.53,0.48-0.86C94.67,89.3,94.71,88.92,94.71,88.54z"/>
	</g>
	<g>
		<path class="st3" d="M104.85,91.18c0.24,0,0.48-0.05,0.72-0.14c0.19-0.1,0.38-0.19,0.53-0.38s0.24-0.34,0.34-0.58
			c0.1-0.24,0.1-0.48,0.1-0.82v-4.99h1.97v4.99c0,0.53-0.1,1.01-0.24,1.44c-0.14,0.43-0.38,0.82-0.72,1.1
			c-0.29,0.29-0.67,0.58-1.15,0.72c-0.43,0.19-0.96,0.24-1.49,0.24c-0.58,0-1.06-0.1-1.49-0.24c-0.43-0.19-0.82-0.43-1.15-0.72
			c-0.29-0.29-0.53-0.67-0.72-1.1c-0.14-0.43-0.24-0.91-0.24-1.44v-4.99h1.97v4.95c0,0.29,0.05,0.58,0.1,0.77
			c0.1,0.24,0.19,0.43,0.34,0.58s0.34,0.29,0.53,0.38C104.32,91.13,104.56,91.18,104.85,91.18z"/>
	</g>
	<g>
		<path class="st3" d="M121.46,87.72h0.29c0.29,0,0.48-0.1,0.62-0.29l1.87-2.74c0.1-0.14,0.24-0.24,0.38-0.29s0.29-0.1,0.48-0.1
			h1.68l-2.5,3.41c-0.19,0.24-0.38,0.38-0.58,0.53c0.14,0.05,0.29,0.14,0.38,0.24c0.1,0.1,0.24,0.24,0.34,0.38l2.54,3.89h-1.73
			c-0.1,0-0.19,0-0.29,0s-0.14-0.05-0.19-0.05c-0.05-0.05-0.1-0.05-0.14-0.1s-0.1-0.1-0.14-0.14l-1.92-2.93
			c-0.05-0.1-0.14-0.19-0.24-0.24c-0.1-0.05-0.24-0.05-0.43-0.05h-0.48v3.55h-1.97v-8.4h1.97v3.31H121.46z"/>
	</g>
	<g>
		<path class="st3" d="M133.08,85.8v1.97h2.64v1.44h-2.64v2.02h3.46v1.49h-5.43v-8.4h5.43v1.49L133.08,85.8L133.08,85.8z"/>
	</g>
	<g>
		<path class="st3" d="M143.16,85.8v1.97h2.64v1.44h-2.64v2.02h3.46v1.49h-5.43v-8.4h5.43v1.49L143.16,85.8L143.16,85.8z"/>
	</g>
	<g>
		<path class="st3" d="M154.21,84.31c0.58,0,1.1,0.05,1.54,0.19c0.43,0.14,0.77,0.34,1.06,0.58c0.29,0.24,0.48,0.53,0.62,0.86
			s0.19,0.67,0.19,1.1c0,0.43-0.05,0.82-0.19,1.15c-0.14,0.34-0.34,0.67-0.62,0.91c-0.29,0.24-0.62,0.43-1.06,0.58
			c-0.43,0.14-0.91,0.19-1.49,0.19h-1.01v2.78h-1.97v-8.4h2.93V84.31z M154.21,88.44c0.53,0,0.86-0.14,1.1-0.38s0.34-0.58,0.34-1.01
			c0-0.19-0.05-0.38-0.1-0.53c-0.05-0.14-0.14-0.29-0.24-0.38s-0.29-0.19-0.43-0.24s-0.38-0.1-0.62-0.1h-1.01v2.64L154.21,88.44
			L154.21,88.44z"/>
	</g>
</g>
<g>
	<g>
		<path class="st3" d="M84.87,145.05h3.46v0.62h-3.46V145.05z"/>
	</g>
	<g>
		<path class="st3" d="M91.98,144.43c0.19,0.05,0.43,0.14,0.62,0.19c0.19,0.1,0.38,0.19,0.53,0.29c0.14,0.1,0.29,0.29,0.38,0.43
			s0.14,0.38,0.14,0.67c0,0.24-0.05,0.48-0.14,0.72s-0.19,0.43-0.38,0.62c-0.19,0.19-0.38,0.34-0.62,0.43
			c-0.24,0.1-0.53,0.19-0.82,0.19l-0.05,0.72c0,0.05-0.05,0.1-0.05,0.14c-0.05,0.05-0.1,0.05-0.14,0.05h-0.29l0.05-0.96
			c-0.34-0.05-0.67-0.14-0.96-0.29c-0.29-0.14-0.53-0.34-0.77-0.53l0.24-0.38c0.05-0.05,0.05-0.05,0.1-0.1
			c0.05,0,0.1-0.05,0.14-0.05s0.14,0.05,0.19,0.1c0.05,0.05,0.14,0.1,0.24,0.19c0.1,0.05,0.19,0.14,0.34,0.19s0.29,0.1,0.48,0.14
			l0.14-2.21c-0.19-0.05-0.38-0.14-0.58-0.19c-0.19-0.1-0.38-0.19-0.53-0.29c-0.14-0.14-0.29-0.29-0.38-0.48s-0.14-0.43-0.14-0.72
			c0-0.19,0.05-0.43,0.14-0.62c0.1-0.19,0.19-0.38,0.38-0.53c0.19-0.14,0.34-0.29,0.58-0.38c0.24-0.1,0.48-0.14,0.82-0.19l0.05-0.62
			c0-0.05,0.05-0.1,0.05-0.14c0.05-0.05,0.1-0.05,0.14-0.05h0.29l-0.05,0.86c0.29,0.05,0.58,0.14,0.77,0.24s0.43,0.24,0.58,0.43
			l-0.19,0.29c-0.05,0.1-0.14,0.14-0.19,0.14c-0.05,0-0.1,0-0.14-0.05s-0.14-0.1-0.19-0.1c-0.1-0.05-0.19-0.1-0.29-0.14
			c-0.1-0.05-0.24-0.1-0.34-0.1L91.98,144.43z M91.59,142.41c-0.19,0-0.34,0.05-0.48,0.1c-0.14,0.05-0.24,0.14-0.34,0.19
			c-0.1,0.1-0.14,0.19-0.19,0.29c-0.05,0.1-0.05,0.19-0.05,0.34c0,0.14,0,0.24,0.05,0.34s0.1,0.19,0.19,0.24
			c0.1,0.1,0.19,0.14,0.29,0.19c0.1,0.05,0.24,0.1,0.34,0.14L91.59,142.41z M91.79,147.26c0.34-0.05,0.62-0.14,0.82-0.34
			s0.29-0.43,0.29-0.77c0-0.14-0.05-0.24-0.1-0.34s-0.1-0.19-0.19-0.24c-0.1-0.1-0.19-0.14-0.29-0.19s-0.24-0.1-0.38-0.14
			L91.79,147.26z"/>
	</g>
	<g>
		<path class="st3" d="M98.89,144.81c0,0.53-0.05,1.01-0.19,1.39c-0.14,0.38-0.29,0.72-0.48,1.01s-0.43,0.43-0.72,0.58
			c-0.29,0.14-0.58,0.19-0.86,0.19c-0.29,0-0.62-0.05-0.86-0.19c-0.29-0.14-0.53-0.34-0.72-0.58c-0.19-0.24-0.38-0.58-0.48-1.01
			c-0.1-0.38-0.19-0.86-0.19-1.39c0-0.53,0.05-1.01,0.19-1.39c0.1-0.38,0.29-0.72,0.48-1.01c0.19-0.24,0.43-0.43,0.72-0.58
			c0.29-0.14,0.58-0.19,0.86-0.19c0.29,0,0.62,0.05,0.86,0.19s0.53,0.34,0.72,0.58c0.19,0.24,0.38,0.58,0.48,1.01
			C98.8,143.85,98.89,144.28,98.89,144.81z M98.03,144.81c0-0.48-0.05-0.86-0.1-1.15c-0.1-0.34-0.19-0.58-0.29-0.77
			s-0.29-0.34-0.43-0.43c-0.14-0.1-0.34-0.14-0.53-0.14c-0.19,0-0.34,0.05-0.53,0.14c-0.14,0.1-0.34,0.24-0.43,0.43
			c-0.14,0.19-0.24,0.43-0.29,0.77c-0.1,0.34-0.1,0.72-0.1,1.15s0.05,0.86,0.1,1.15c0.1,0.34,0.19,0.58,0.29,0.77
			c0.14,0.19,0.29,0.34,0.43,0.38c0.14,0.1,0.34,0.14,0.53,0.14c0.19,0,0.34-0.05,0.53-0.14c0.14-0.1,0.34-0.24,0.43-0.38
			c0.14-0.19,0.24-0.43,0.29-0.77C97.98,145.67,98.03,145.29,98.03,144.81z"/>
	</g>
	<g>
		<path class="st3" d="M99.61,147.4c0-0.1,0-0.14,0.05-0.24c0.05-0.05,0.05-0.14,0.1-0.19c0.05-0.05,0.1-0.1,0.19-0.14
			c0.05-0.05,0.14-0.05,0.24-0.05s0.14,0,0.24,0.05c0.05,0.05,0.14,0.05,0.19,0.14c0.05,0.05,0.1,0.1,0.14,0.19
			c0.05,0.05,0.05,0.14,0.05,0.24s0,0.14-0.05,0.24c-0.05,0.05-0.05,0.14-0.14,0.19c-0.05,0.05-0.1,0.1-0.19,0.14
			c-0.05,0.05-0.14,0.05-0.24,0.05s-0.14,0-0.24-0.05c-0.05-0.05-0.14-0.05-0.19-0.14c-0.05-0.05-0.1-0.1-0.1-0.19
			C99.61,147.6,99.61,147.5,99.61,147.4z"/>
	</g>
	<g>
		<path class="st3" d="M105.47,147.12c0.1,0,0.14,0.05,0.24,0.1c0.05,0.05,0.1,0.14,0.1,0.19v0.53h-4.18v-0.29
			c0-0.05,0-0.1,0.05-0.19s0.05-0.14,0.1-0.19l1.97-1.97c0.14-0.14,0.34-0.34,0.43-0.48c0.14-0.14,0.24-0.29,0.34-0.48
			c0.1-0.14,0.14-0.29,0.19-0.48c0.05-0.14,0.1-0.34,0.1-0.48c0-0.19-0.05-0.34-0.1-0.43c-0.05-0.14-0.14-0.24-0.24-0.34
			c-0.1-0.1-0.19-0.14-0.34-0.19c-0.14-0.05-0.29-0.05-0.43-0.05c-0.14,0-0.29,0-0.43,0.05c-0.14,0.05-0.24,0.1-0.34,0.19
			s-0.19,0.19-0.24,0.29s-0.1,0.24-0.14,0.34c-0.05,0.1-0.1,0.19-0.14,0.24s-0.14,0.05-0.29,0.05l-0.43-0.1
			c0.05-0.29,0.1-0.53,0.24-0.77c0.14-0.24,0.29-0.38,0.43-0.53c0.19-0.14,0.38-0.24,0.62-0.34s0.48-0.1,0.77-0.1
			s0.53,0.05,0.77,0.1c0.24,0.1,0.43,0.19,0.58,0.34c0.14,0.14,0.29,0.34,0.38,0.53s0.14,0.48,0.14,0.72s-0.05,0.43-0.1,0.62
			s-0.14,0.38-0.29,0.58c-0.1,0.19-0.24,0.34-0.38,0.53s-0.34,0.34-0.48,0.53l-1.58,1.58c0.14-0.05,0.24-0.05,0.38-0.1
			s0.24-0.05,0.34-0.05h1.97V147.12z"/>
	</g>
	<g>
		<path class="st3" d="M107.82,144.04c0.34-0.05,0.62-0.1,0.86-0.1c0.34,0,0.62,0.05,0.86,0.14c0.24,0.1,0.43,0.24,0.62,0.38
			c0.19,0.19,0.29,0.38,0.38,0.58c0.1,0.24,0.14,0.48,0.14,0.77c0,0.34-0.05,0.62-0.19,0.91c-0.1,0.29-0.29,0.48-0.48,0.67
			c-0.19,0.19-0.43,0.34-0.72,0.43c-0.29,0.1-0.58,0.14-0.86,0.14c-0.19,0-0.38,0-0.53-0.05c-0.19-0.05-0.34-0.1-0.48-0.14
			c-0.14-0.05-0.29-0.14-0.43-0.19s-0.24-0.14-0.34-0.24l0.24-0.38c0.05-0.1,0.14-0.14,0.24-0.14c0.05,0,0.14,0,0.19,0.05
			c0.1,0.05,0.14,0.1,0.24,0.14c0.1,0.05,0.24,0.1,0.34,0.14c0.14,0.05,0.29,0.05,0.48,0.05s0.38-0.05,0.58-0.1
			c0.19-0.05,0.29-0.14,0.43-0.29c0.1-0.14,0.19-0.29,0.29-0.43c0.05-0.19,0.1-0.38,0.1-0.58c0-0.19-0.05-0.34-0.1-0.53
			c-0.05-0.14-0.14-0.29-0.24-0.38c-0.1-0.1-0.24-0.19-0.43-0.24c-0.14-0.05-0.34-0.1-0.58-0.1c-0.29,0-0.62,0.05-0.96,0.14
			l-0.53-0.14l0.53-2.93h2.98v0.38c0,0.14-0.05,0.24-0.1,0.29c-0.1,0.1-0.19,0.1-0.38,0.1h-1.87L107.82,144.04z"/>
	</g>
	<g>
		<path class="st3" d="M116.03,141.74c0.38,0,0.72,0.05,1.06,0.14c0.29,0.1,0.53,0.24,0.72,0.38c0.19,0.19,0.34,0.38,0.43,0.62
			s0.14,0.48,0.14,0.82c0,0.29-0.05,0.58-0.14,0.82c-0.1,0.24-0.24,0.43-0.43,0.62s-0.43,0.29-0.72,0.43
			c-0.29,0.1-0.62,0.14-1.01,0.14h-0.96v2.3h-0.91v-6.19h1.82V141.74z M116.03,144.91c0.24,0,0.43-0.05,0.62-0.1
			c0.19-0.05,0.34-0.14,0.43-0.24s0.19-0.24,0.29-0.38c0.05-0.14,0.1-0.34,0.1-0.53c0-0.38-0.1-0.67-0.34-0.91s-0.58-0.34-1.06-0.34
			h-0.96v2.45h0.91V144.91z"/>
	</g>
	<g>
		<path class="st3" d="M118.96,144.14c0.24-0.24,0.53-0.38,0.82-0.53s0.62-0.19,0.96-0.19c0.24,0,0.48,0.05,0.67,0.14
			c0.19,0.1,0.34,0.19,0.48,0.34c0.14,0.14,0.24,0.34,0.29,0.53c0.05,0.19,0.1,0.43,0.1,0.67v2.78h-0.38c-0.1,0-0.14,0-0.19-0.05
			c-0.05-0.05-0.1-0.1-0.1-0.14l-0.1-0.38c-0.1,0.1-0.24,0.19-0.34,0.29s-0.24,0.14-0.34,0.19s-0.24,0.1-0.38,0.14
			c-0.14,0.05-0.29,0.05-0.43,0.05c-0.19,0-0.34,0-0.48-0.05c-0.14-0.05-0.29-0.1-0.38-0.24s-0.19-0.24-0.29-0.38
			c-0.05-0.14-0.1-0.34-0.1-0.53s0.05-0.34,0.14-0.48s0.24-0.29,0.48-0.43c0.19-0.14,0.48-0.24,0.82-0.29
			c0.34-0.05,0.77-0.14,1.25-0.14v-0.34c0-0.34-0.05-0.58-0.19-0.72c-0.14-0.14-0.34-0.24-0.62-0.24c-0.19,0-0.34,0-0.48,0.05
			s-0.24,0.1-0.34,0.14c-0.1,0.05-0.19,0.1-0.24,0.14c-0.05,0.05-0.14,0.05-0.19,0.05s-0.1,0-0.14-0.05s-0.1-0.05-0.1-0.1
			L118.96,144.14z M121.46,145.96c-0.34,0-0.62,0.05-0.86,0.1c-0.24,0.05-0.43,0.1-0.58,0.14c-0.14,0.05-0.24,0.14-0.34,0.24
			c-0.05,0.1-0.1,0.19-0.1,0.34c0,0.1,0,0.19,0.05,0.29s0.1,0.14,0.14,0.19s0.14,0.1,0.24,0.1s0.19,0.05,0.29,0.05
			c0.14,0,0.24,0,0.34-0.05s0.19-0.05,0.29-0.1s0.19-0.1,0.29-0.19c0.1-0.05,0.19-0.14,0.24-0.24L121.46,145.96L121.46,145.96z"/>
	</g>
	<g>
		<path class="st3" d="M127.13,143.56l-2.45,5.67c-0.05,0.05-0.05,0.1-0.1,0.14s-0.1,0.05-0.19,0.05h-0.62l0.82-1.73l-1.82-4.13
			h0.72c0.1,0,0.14,0,0.19,0.05c0.05,0.05,0.05,0.1,0.1,0.1l1.1,2.64c0,0.05,0.05,0.14,0.05,0.19s0.05,0.14,0.05,0.19
			c0-0.05,0.05-0.14,0.05-0.19s0.05-0.14,0.1-0.19l1.06-2.64c0-0.05,0.05-0.1,0.1-0.14s0.1-0.05,0.14-0.05h0.72V143.56z"/>
	</g>
	<g>
		<path class="st3" d="M127.75,147.93v-4.37h0.53c0.1,0,0.19,0.05,0.24,0.19l0.05,0.43c0.14-0.19,0.34-0.34,0.53-0.48
			s0.43-0.19,0.67-0.19c0.29,0,0.53,0.1,0.72,0.24s0.34,0.38,0.38,0.67c0.05-0.14,0.14-0.29,0.24-0.38c0.1-0.1,0.19-0.19,0.34-0.29
			c0.14-0.1,0.24-0.14,0.38-0.14c0.14-0.05,0.29-0.05,0.43-0.05c0.24,0,0.43,0.05,0.62,0.1c0.19,0.1,0.34,0.19,0.48,0.34
			s0.24,0.34,0.29,0.53s0.1,0.43,0.1,0.72v2.78h-0.86v-2.78c0-0.34-0.05-0.58-0.19-0.72s-0.34-0.24-0.62-0.24
			c-0.14,0-0.24,0-0.34,0.05s-0.19,0.1-0.29,0.19s-0.14,0.19-0.19,0.29c-0.05,0.14-0.05,0.29-0.05,0.43v2.78h-0.86v-2.78
			c0-0.34-0.05-0.58-0.19-0.77c-0.14-0.19-0.34-0.24-0.58-0.24c-0.19,0-0.34,0.05-0.53,0.14c-0.14,0.1-0.29,0.24-0.43,0.38v3.27
			h-0.86V147.93z"/>
	</g>
	<g>
		<path class="st3" d="M138.51,147.31c-0.1,0.14-0.24,0.24-0.34,0.34c-0.14,0.1-0.29,0.14-0.43,0.19c-0.14,0.05-0.29,0.1-0.48,0.14
			s-0.34,0.05-0.48,0.05c-0.29,0-0.58-0.05-0.86-0.14c-0.29-0.1-0.48-0.24-0.67-0.43s-0.34-0.43-0.43-0.72
			c-0.1-0.29-0.14-0.62-0.14-1.01c0-0.29,0.05-0.58,0.14-0.86c0.1-0.24,0.24-0.48,0.43-0.67c0.19-0.19,0.38-0.34,0.67-0.48
			c0.24-0.1,0.53-0.19,0.86-0.19c0.29,0,0.53,0.05,0.72,0.14c0.24,0.1,0.43,0.19,0.58,0.38c0.14,0.14,0.29,0.38,0.38,0.62
			s0.14,0.53,0.14,0.82c0,0.14,0,0.24-0.05,0.24c-0.05,0.05-0.1,0.05-0.14,0.05h-2.88c0,0.24,0.05,0.48,0.1,0.67
			s0.14,0.34,0.29,0.48c0.1,0.14,0.24,0.24,0.43,0.29s0.34,0.1,0.53,0.1s0.34,0,0.48-0.05s0.24-0.1,0.34-0.14
			c0.1-0.05,0.19-0.1,0.24-0.14c0.05-0.05,0.14-0.05,0.19-0.05s0.14,0.05,0.14,0.1L138.51,147.31z M137.83,145.24
			c0-0.14,0-0.34-0.05-0.48c-0.05-0.14-0.1-0.24-0.19-0.38c-0.1-0.1-0.19-0.19-0.34-0.24c-0.14-0.05-0.29-0.1-0.48-0.1
			c-0.34,0-0.62,0.1-0.82,0.29c-0.19,0.19-0.34,0.48-0.38,0.86h2.26V145.24z"/>
	</g>
	<g>
		<path class="st3" d="M140.28,144.14c0.1-0.1,0.19-0.19,0.29-0.29s0.19-0.14,0.34-0.19s0.24-0.1,0.38-0.14
			c0.14-0.05,0.29-0.05,0.43-0.05c0.24,0,0.43,0.05,0.62,0.14c0.19,0.1,0.34,0.19,0.48,0.34c0.14,0.14,0.24,0.34,0.29,0.53
			s0.1,0.43,0.1,0.67v2.78h-0.86v-2.78c0-0.34-0.05-0.58-0.19-0.72c-0.14-0.19-0.38-0.24-0.67-0.24c-0.24,0-0.43,0.05-0.62,0.14
			c-0.19,0.1-0.38,0.24-0.53,0.43v3.22h-0.86v-4.37h0.53c0.1,0,0.19,0.05,0.24,0.19L140.28,144.14z"/>
	</g>
	<g>
		<path class="st3" d="M145.61,147.98c-0.34,0-0.62-0.1-0.82-0.29c-0.19-0.19-0.29-0.48-0.29-0.86v-2.64h-0.53
			c-0.05,0-0.1,0-0.14-0.05c-0.05-0.05-0.05-0.1-0.05-0.14v-0.34l0.72-0.1l0.19-1.3c0-0.05,0.05-0.1,0.05-0.1s0.1-0.05,0.14-0.05
			h0.43v1.49h1.25v0.62h-1.25v2.59c0,0.19,0.05,0.29,0.14,0.38c0.1,0.1,0.19,0.14,0.34,0.14c0.1,0,0.14,0,0.19-0.05
			c0.05,0,0.1-0.05,0.14-0.05c0.05-0.05,0.1-0.05,0.1-0.05c0.05,0,0.05-0.05,0.1-0.05s0.05,0,0.05,0l0.05,0.05l0.24,0.38
			c-0.14,0.14-0.29,0.24-0.48,0.29C146.04,147.98,145.85,147.98,145.61,147.98z"/>
	</g>
	<g>
		<path class="st3" d="M91.64,151.82c0.38,0,0.72,0.05,1.06,0.14c0.29,0.1,0.53,0.24,0.72,0.38c0.19,0.19,0.34,0.38,0.43,0.62
			s0.14,0.48,0.14,0.82c0,0.29-0.05,0.58-0.14,0.82s-0.24,0.43-0.43,0.62s-0.43,0.29-0.72,0.43c-0.29,0.14-0.62,0.14-1.01,0.14
			h-0.96v2.3h-0.91v-6.19h1.82V151.82z M91.64,154.99c0.24,0,0.43-0.05,0.62-0.1c0.19-0.05,0.34-0.14,0.43-0.24s0.19-0.24,0.29-0.38
			c0.05-0.14,0.1-0.34,0.1-0.53c0-0.38-0.1-0.67-0.34-0.91s-0.58-0.34-1.06-0.34h-0.96v2.45h0.91V154.99z"/>
	</g>
	<g>
		<path class="st3" d="M95.53,154.46c0.14-0.29,0.29-0.53,0.53-0.67c0.24-0.14,0.43-0.24,0.72-0.24c0.1,0,0.19,0,0.29,0.05
			c0.1,0,0.14,0.05,0.24,0.1l-0.05,0.62c0,0.1-0.05,0.1-0.14,0.1c-0.05,0-0.1,0-0.19,0c-0.1,0-0.14,0-0.24,0
			c-0.14,0-0.24,0-0.34,0.05s-0.19,0.1-0.29,0.19s-0.14,0.19-0.24,0.29c-0.05,0.1-0.14,0.24-0.19,0.38v2.74h-0.86v-4.37h0.48
			c0.1,0,0.14,0,0.19,0.05c0.05,0.05,0.05,0.1,0.05,0.19L95.53,154.46z"/>
	</g>
	<g>
		<path class="st3" d="M99.61,153.55c0.34,0,0.62,0.05,0.86,0.14c0.24,0.1,0.48,0.24,0.67,0.43s0.34,0.43,0.43,0.72
			c0.1,0.29,0.14,0.58,0.14,0.91c0,0.34-0.05,0.67-0.14,0.96c-0.1,0.29-0.24,0.53-0.43,0.72c-0.19,0.19-0.38,0.34-0.67,0.43
			c-0.24,0.1-0.58,0.14-0.86,0.14c-0.34,0-0.62-0.05-0.86-0.14c-0.24-0.1-0.48-0.24-0.67-0.43c-0.19-0.19-0.34-0.43-0.43-0.72
			s-0.14-0.58-0.14-0.96c0-0.38,0.05-0.67,0.14-0.91s0.24-0.53,0.43-0.72s0.38-0.34,0.67-0.43
			C98.99,153.6,99.28,153.55,99.61,153.55z M99.61,157.44c0.43,0,0.72-0.14,0.91-0.43c0.19-0.29,0.29-0.67,0.29-1.2
			c0-0.53-0.1-0.91-0.29-1.2c-0.19-0.29-0.53-0.43-0.91-0.43c-0.43,0-0.72,0.14-0.96,0.43c-0.19,0.29-0.29,0.67-0.29,1.2
			c0,0.53,0.1,0.91,0.29,1.2C98.84,157.29,99.18,157.44,99.61,157.44z"/>
	</g>
	<g>
		<path class="st3" d="M105.71,154.46c-0.05,0.05-0.05,0.05-0.1,0.1s-0.05,0.05-0.1,0.05c-0.05,0-0.1,0-0.14-0.05
			c-0.05-0.05-0.1-0.1-0.19-0.1s-0.19-0.1-0.29-0.1c-0.1-0.05-0.24-0.05-0.38-0.05c-0.19,0-0.38,0.05-0.53,0.1
			c-0.14,0.1-0.29,0.19-0.38,0.34c-0.1,0.14-0.19,0.29-0.24,0.53c-0.05,0.19-0.1,0.43-0.1,0.67s0.05,0.48,0.1,0.67
			s0.14,0.38,0.24,0.53c0.1,0.14,0.24,0.24,0.38,0.29c0.14,0.05,0.34,0.1,0.53,0.1s0.34,0,0.43-0.05s0.24-0.1,0.29-0.14
			c0.1-0.05,0.14-0.1,0.19-0.14c0.05-0.05,0.1-0.05,0.14-0.05s0.14,0.05,0.14,0.1l0.24,0.29c-0.1,0.14-0.19,0.24-0.34,0.34
			s-0.24,0.14-0.38,0.19c-0.14,0.05-0.29,0.1-0.43,0.14c-0.14,0.05-0.29,0.05-0.48,0.05c-0.29,0-0.53-0.05-0.77-0.14
			c-0.24-0.1-0.43-0.24-0.62-0.43c-0.19-0.19-0.29-0.43-0.43-0.72c-0.14-0.29-0.14-0.58-0.14-0.96c0-0.34,0.05-0.62,0.14-0.91
			c0.1-0.29,0.24-0.53,0.38-0.72s0.38-0.34,0.67-0.48c0.29-0.14,0.58-0.19,0.91-0.19c0.34,0,0.58,0.05,0.82,0.14
			c0.24,0.1,0.43,0.24,0.62,0.43L105.71,154.46z"/>
	</g>
	<g>
		<path class="st3" d="M110.32,157.39c-0.1,0.14-0.24,0.24-0.34,0.34c-0.14,0.1-0.29,0.14-0.43,0.19c-0.14,0.05-0.29,0.1-0.48,0.14
			c-0.19,0.05-0.34,0.05-0.48,0.05c-0.29,0-0.58-0.05-0.86-0.14s-0.48-0.24-0.67-0.43c-0.19-0.19-0.34-0.43-0.43-0.72
			s-0.14-0.62-0.14-1.01c0-0.29,0.05-0.58,0.14-0.86c0.1-0.24,0.24-0.48,0.43-0.67c0.19-0.19,0.38-0.34,0.67-0.48
			c0.24-0.1,0.53-0.19,0.86-0.19c0.29,0,0.53,0.05,0.72,0.14c0.24,0.1,0.43,0.19,0.58,0.38c0.14,0.19,0.29,0.38,0.38,0.62
			s0.14,0.53,0.14,0.82c0,0.14,0,0.24-0.05,0.24s-0.1,0.05-0.14,0.05h-2.88c0,0.24,0.05,0.48,0.1,0.67
			c0.05,0.19,0.14,0.34,0.29,0.48c0.1,0.14,0.24,0.24,0.43,0.29c0.19,0.05,0.34,0.1,0.53,0.1c0.19,0,0.34,0,0.48-0.05
			c0.14-0.05,0.24-0.1,0.34-0.14c0.1-0.05,0.19-0.1,0.24-0.14c0.05-0.05,0.14-0.05,0.19-0.05c0.05,0,0.14,0.05,0.14,0.1
			L110.32,157.39z M109.6,155.33c0-0.14,0-0.34-0.05-0.48s-0.1-0.24-0.19-0.38c-0.1-0.1-0.19-0.19-0.34-0.24
			c-0.14-0.05-0.29-0.1-0.48-0.1c-0.34,0-0.62,0.1-0.82,0.29s-0.34,0.48-0.38,0.86h2.26V155.33z"/>
	</g>
	<g>
		<path class="st3" d="M113.87,154.37c0,0.05-0.05,0.05-0.1,0.1c-0.05,0.05-0.05,0-0.1,0c-0.05,0-0.1,0-0.14-0.05
			s-0.14-0.05-0.19-0.1s-0.19-0.1-0.29-0.1c-0.1-0.05-0.24-0.05-0.38-0.05s-0.24,0-0.34,0.05s-0.19,0.1-0.24,0.14
			c-0.05,0.05-0.14,0.1-0.14,0.19s-0.05,0.14-0.05,0.24s0.05,0.19,0.1,0.29c0.05,0.05,0.14,0.14,0.24,0.19s0.24,0.1,0.34,0.14
			c0.14,0.05,0.29,0.1,0.43,0.14c0.14,0.05,0.29,0.1,0.43,0.14c0.14,0.05,0.24,0.14,0.34,0.24s0.19,0.19,0.24,0.34
			c0.05,0.14,0.1,0.29,0.1,0.43c0,0.19-0.05,0.38-0.1,0.58c-0.1,0.19-0.19,0.34-0.34,0.43c-0.14,0.14-0.34,0.24-0.53,0.29
			c-0.19,0.1-0.43,0.1-0.72,0.1s-0.58-0.05-0.82-0.14s-0.48-0.24-0.62-0.38l0.19-0.34c0-0.05,0.05-0.05,0.1-0.1
			c0.05,0,0.1-0.05,0.14-0.05s0.1,0,0.19,0.05s0.14,0.1,0.19,0.14c0.1,0.05,0.19,0.1,0.29,0.14c0.1,0.05,0.24,0.05,0.43,0.05
			c0.14,0,0.29,0,0.38-0.05c0.1-0.05,0.19-0.1,0.29-0.14c0.05-0.05,0.14-0.14,0.14-0.19c0.05-0.1,0.05-0.14,0.05-0.24
			s-0.05-0.19-0.1-0.29c-0.05-0.1-0.14-0.14-0.24-0.19s-0.24-0.1-0.38-0.14c-0.14-0.05-0.29-0.1-0.43-0.14
			c-0.14-0.05-0.29-0.1-0.43-0.14s-0.24-0.14-0.38-0.24c-0.1-0.1-0.19-0.19-0.24-0.34c-0.05-0.14-0.1-0.29-0.1-0.48
			s0.05-0.34,0.1-0.48c0.05-0.14,0.19-0.29,0.29-0.43c0.14-0.1,0.29-0.19,0.48-0.29c0.19-0.1,0.43-0.1,0.67-0.1
			c0.29,0,0.58,0.05,0.77,0.14c0.24,0.1,0.43,0.24,0.62,0.38L113.87,154.37z"/>
	</g>
	<g>
		<path class="st3" d="M117.62,154.37c0,0.05-0.05,0.05-0.1,0.1c-0.05,0-0.05,0-0.1,0c-0.05,0-0.1,0-0.14-0.05s-0.14-0.05-0.19-0.1
			s-0.19-0.1-0.29-0.1c-0.1-0.05-0.24-0.05-0.38-0.05s-0.24,0-0.34,0.05s-0.19,0.1-0.24,0.14c-0.05,0.05-0.14,0.1-0.14,0.19
			c-0.05,0.1-0.05,0.14-0.05,0.24s0.05,0.19,0.1,0.29c0.05,0.05,0.14,0.14,0.24,0.19s0.24,0.1,0.34,0.14s0.29,0.1,0.43,0.14
			c0.14,0.05,0.29,0.1,0.43,0.14s0.24,0.14,0.34,0.24s0.19,0.19,0.24,0.34c0.05,0.14,0.1,0.29,0.1,0.43c0,0.19-0.05,0.38-0.1,0.58
			s-0.19,0.34-0.34,0.43c-0.14,0.14-0.34,0.24-0.53,0.29c-0.19,0.1-0.43,0.1-0.72,0.1s-0.58-0.05-0.82-0.14s-0.48-0.24-0.62-0.38
			l0.19-0.34c0-0.05,0.05-0.05,0.1-0.1s0.1-0.05,0.14-0.05s0.1,0,0.19,0.05s0.14,0.1,0.19,0.14c0.1,0.05,0.19,0.1,0.29,0.14
			c0.1,0.05,0.24,0.05,0.43,0.05c0.14,0,0.29,0,0.38-0.05c0.1-0.05,0.19-0.1,0.29-0.14c0.05-0.05,0.14-0.14,0.14-0.19
			c0.05-0.1,0.05-0.14,0.05-0.24s-0.05-0.19-0.1-0.29s-0.14-0.14-0.24-0.19s-0.24-0.1-0.38-0.14c-0.14-0.05-0.29-0.1-0.43-0.14
			s-0.29-0.1-0.43-0.14s-0.24-0.14-0.38-0.24c-0.1-0.1-0.19-0.19-0.24-0.34c-0.05-0.14-0.1-0.29-0.1-0.48s0.05-0.34,0.1-0.48
			c0.05-0.14,0.19-0.29,0.29-0.43s0.29-0.19,0.48-0.29c0.19-0.05,0.43-0.1,0.67-0.1c0.29,0,0.58,0.05,0.77,0.14s0.43,0.24,0.62,0.38
			L117.62,154.37z"/>
	</g>
	<g>
		<path class="st3" d="M119.83,152.25c0,0.1,0,0.14-0.05,0.24c-0.05,0.05-0.1,0.14-0.14,0.19s-0.1,0.1-0.19,0.14
			c-0.05,0.05-0.14,0.05-0.24,0.05s-0.14,0-0.24-0.05c-0.05-0.05-0.14-0.1-0.19-0.14c-0.05-0.05-0.1-0.1-0.14-0.19
			c-0.05-0.05-0.05-0.14-0.05-0.24s0-0.14,0.05-0.24c0.05-0.05,0.1-0.14,0.14-0.19c0.05-0.05,0.1-0.1,0.19-0.14
			c0.05-0.05,0.14-0.05,0.24-0.05s0.14,0,0.24,0.05c0.1,0.05,0.14,0.1,0.19,0.14c0.05,0.05,0.1,0.1,0.14,0.19
			S119.83,152.2,119.83,152.25z M119.68,153.65v4.37h-0.86v-4.37H119.68z"/>
	</g>
	<g>
		<path class="st3" d="M121.7,154.22c0.1-0.1,0.19-0.19,0.29-0.29s0.19-0.14,0.34-0.19c0.14-0.05,0.24-0.1,0.38-0.14
			c0.14-0.05,0.29-0.05,0.43-0.05c0.24,0,0.43,0.05,0.62,0.14c0.19,0.1,0.34,0.19,0.48,0.34c0.14,0.14,0.24,0.34,0.29,0.53
			s0.1,0.43,0.1,0.67v2.78h-0.86v-2.78c0-0.34-0.05-0.58-0.19-0.72c-0.14-0.19-0.38-0.24-0.67-0.24c-0.24,0-0.43,0.05-0.62,0.14
			c-0.19,0.1-0.38,0.24-0.53,0.43v3.22h-0.86v-4.37h0.53c0.1,0,0.19,0.05,0.24,0.19L121.7,154.22z"/>
	</g>
	<g>
		<path class="st3" d="M129.48,153.79v0.34c0,0.1-0.05,0.19-0.19,0.19l-0.48,0.05c0.05,0.1,0.1,0.19,0.1,0.29s0.05,0.19,0.05,0.34
			c0,0.19-0.05,0.43-0.14,0.58c-0.1,0.19-0.19,0.34-0.34,0.43c-0.14,0.1-0.34,0.24-0.53,0.29c-0.19,0.05-0.43,0.1-0.67,0.1
			c-0.19,0-0.38,0-0.58-0.05c-0.1,0.05-0.14,0.1-0.19,0.19s-0.05,0.14-0.05,0.19c0,0.1,0.05,0.19,0.14,0.24
			c0.1,0.05,0.19,0.1,0.34,0.1c0.14,0,0.29,0.05,0.48,0.05s0.34,0,0.53,0.05c0.19,0,0.38,0.05,0.53,0.05
			c0.19,0.05,0.34,0.1,0.48,0.14c0.14,0.1,0.24,0.19,0.34,0.29c0.1,0.14,0.14,0.29,0.14,0.48s-0.05,0.38-0.14,0.58
			s-0.24,0.34-0.43,0.48c-0.19,0.14-0.38,0.24-0.67,0.34c-0.24,0.1-0.53,0.14-0.86,0.14c-0.34,0-0.62-0.05-0.86-0.1
			s-0.43-0.14-0.62-0.24c-0.19-0.1-0.29-0.24-0.34-0.38c-0.1-0.14-0.1-0.29-0.1-0.43c0-0.19,0.05-0.38,0.19-0.53
			c0.14-0.14,0.34-0.29,0.53-0.34c-0.14-0.05-0.24-0.14-0.29-0.24c-0.1-0.1-0.1-0.24-0.1-0.38c0-0.05,0-0.14,0.05-0.19
			c0-0.05,0.05-0.14,0.1-0.19c0.05-0.05,0.1-0.14,0.19-0.19c0.05-0.05,0.14-0.1,0.24-0.14c-0.24-0.14-0.38-0.29-0.53-0.48
			c-0.14-0.19-0.19-0.43-0.19-0.72c0-0.24,0.05-0.43,0.14-0.58c0.1-0.19,0.19-0.34,0.34-0.43c0.14-0.14,0.34-0.24,0.53-0.29
			s0.43-0.1,0.67-0.1c0.38,0,0.72,0.1,0.96,0.24h1.25V153.79z M128.61,158.25c0-0.1-0.05-0.19-0.1-0.24s-0.14-0.1-0.24-0.14
			c-0.1-0.05-0.19-0.05-0.34-0.1c-0.14,0-0.29-0.05-0.43-0.05s-0.29,0-0.43,0c-0.14,0-0.29,0-0.43-0.05
			c-0.14,0.1-0.29,0.14-0.38,0.29c-0.1,0.1-0.14,0.24-0.14,0.38c0,0.1,0,0.19,0.05,0.24c0.05,0.1,0.14,0.14,0.24,0.19
			s0.24,0.1,0.38,0.14c0.14,0.05,0.34,0.05,0.53,0.05s0.38,0,0.53-0.05c0.14-0.05,0.29-0.1,0.38-0.14c0.1-0.05,0.19-0.14,0.24-0.24
			C128.57,158.45,128.61,158.35,128.61,158.25z M127.27,155.81c0.14,0,0.29,0,0.38-0.05c0.1-0.05,0.19-0.1,0.29-0.19
			c0.1-0.1,0.14-0.14,0.19-0.29c0.05-0.1,0.05-0.24,0.05-0.34c0-0.24-0.1-0.48-0.24-0.62s-0.38-0.24-0.67-0.24
			c-0.29,0-0.53,0.1-0.67,0.24s-0.24,0.34-0.24,0.62c0,0.14,0,0.24,0.05,0.34s0.1,0.19,0.19,0.24c0.1,0.1,0.19,0.14,0.29,0.19
			C126.98,155.81,127.13,155.81,127.27,155.81z"/>
	</g>
	<g>
		<path class="st3" d="M133.51,152.54v2.06h2.5v0.77h-2.5v2.64h-0.91v-6.19h3.84v0.77h-2.93V152.54z"/>
	</g>
	<g>
		<path class="st3" d="M140.52,157.39c-0.1,0.14-0.24,0.24-0.34,0.34c-0.14,0.1-0.29,0.14-0.43,0.19c-0.14,0.05-0.29,0.1-0.48,0.14
			s-0.34,0.05-0.48,0.05c-0.29,0-0.58-0.05-0.86-0.14c-0.29-0.1-0.48-0.24-0.67-0.43c-0.19-0.19-0.34-0.43-0.43-0.72
			c-0.1-0.29-0.14-0.62-0.14-1.01c0-0.29,0.05-0.58,0.14-0.86c0.1-0.24,0.24-0.48,0.43-0.67s0.38-0.34,0.67-0.48
			c0.24-0.1,0.53-0.19,0.86-0.19c0.29,0,0.53,0.05,0.72,0.14c0.24,0.1,0.43,0.19,0.58,0.38s0.29,0.38,0.38,0.62
			c0.1,0.24,0.14,0.53,0.14,0.82c0,0.14,0,0.24-0.05,0.24s-0.1,0.05-0.14,0.05h-2.88c0,0.24,0.05,0.48,0.1,0.67s0.14,0.34,0.29,0.48
			c0.1,0.14,0.24,0.24,0.43,0.29s0.34,0.1,0.53,0.1s0.34,0,0.48-0.05s0.24-0.1,0.34-0.14c0.1-0.05,0.19-0.1,0.24-0.14
			c0.05-0.05,0.14-0.05,0.19-0.05s0.14,0.05,0.14,0.1L140.52,157.39z M139.85,155.33c0-0.14,0-0.34-0.05-0.48s-0.1-0.24-0.19-0.38
			c-0.1-0.1-0.19-0.19-0.34-0.24c-0.14-0.05-0.29-0.1-0.48-0.1c-0.34,0-0.62,0.1-0.82,0.29c-0.19,0.19-0.34,0.48-0.38,0.86h2.26
			V155.33z"/>
	</g>
	<g>
		<path class="st3" d="M145.13,157.39c-0.1,0.14-0.24,0.24-0.34,0.34c-0.14,0.1-0.29,0.14-0.43,0.19s-0.29,0.1-0.48,0.14
			s-0.34,0.05-0.48,0.05c-0.29,0-0.58-0.05-0.86-0.14s-0.48-0.24-0.67-0.43c-0.19-0.19-0.34-0.43-0.43-0.72
			c-0.1-0.29-0.14-0.62-0.14-1.01c0-0.29,0.05-0.58,0.14-0.86c0.1-0.24,0.24-0.48,0.43-0.67s0.38-0.34,0.67-0.48
			c0.24-0.1,0.53-0.19,0.86-0.19c0.29,0,0.53,0.05,0.72,0.14c0.24,0.1,0.43,0.19,0.58,0.38c0.14,0.14,0.29,0.38,0.38,0.62
			s0.14,0.53,0.14,0.82c0,0.14,0,0.24-0.05,0.24c-0.05,0.05-0.1,0.05-0.14,0.05h-2.88c0,0.24,0.05,0.48,0.1,0.67
			s0.14,0.34,0.29,0.48c0.1,0.14,0.24,0.24,0.43,0.29s0.34,0.1,0.53,0.1c0.19,0,0.34,0,0.48-0.05s0.24-0.1,0.34-0.14
			c0.1-0.05,0.19-0.1,0.24-0.14c0.05-0.05,0.14-0.05,0.19-0.05s0.14,0.05,0.14,0.1L145.13,157.39z M144.41,155.33
			c0-0.14,0-0.34-0.05-0.48s-0.1-0.24-0.19-0.38c-0.1-0.1-0.19-0.19-0.34-0.24c-0.14-0.05-0.29-0.1-0.48-0.1
			c-0.34,0-0.62,0.1-0.82,0.29c-0.19,0.19-0.34,0.48-0.38,0.86h2.26V155.33z"/>
	</g>
</g>
<g>
	<g>
		<path class="st4" d="M67.41,119.99c-1,0-2-0.18-3-0.54c-1-0.36-1.91-0.91-2.72-1.64c-0.81-0.73-1.47-1.66-1.98-2.77
			c-0.51-1.11-0.76-2.43-0.76-3.95c0-1.39,0.26-2.71,0.77-3.95c0.51-1.24,1.25-2.33,2.2-3.26c0.95-0.93,2.09-1.67,3.41-2.21
			c1.32-0.54,2.8-0.81,4.44-0.81c1.66,0,3.15,0.25,4.46,0.76s2.42,1.22,3.33,2.14s1.61,2,2.09,3.27c0.49,1.26,0.73,2.65,0.73,4.17
			c0,1.01-0.08,1.97-0.24,2.85c-0.16,0.89-0.39,1.74-0.68,2.55c-0.29,0.81-0.64,1.59-1.05,2.33c-0.41,0.74-0.87,1.47-1.37,2.19
			l-6.64,9.43c-0.28,0.41-0.73,0.75-1.33,1.04c-0.61,0.28-1.29,0.42-2.05,0.42h-6.05l9.77-11.67c0.2-0.24,0.38-0.47,0.56-0.69
			c0.18-0.22,0.35-0.44,0.52-0.67c-0.63,0.34-1.32,0.59-2.07,0.76C69,119.9,68.22,119.99,67.41,119.99z M74.13,110.6
			c0-0.75-0.11-1.41-0.33-1.98c-0.22-0.57-0.52-1.05-0.91-1.43c-0.39-0.38-0.86-0.67-1.41-0.87c-0.55-0.2-1.15-0.3-1.8-0.3
			c-0.66,0-1.25,0.12-1.77,0.35c-0.51,0.23-0.95,0.55-1.31,0.96c-0.36,0.41-0.63,0.89-0.82,1.45c-0.19,0.56-0.29,1.16-0.29,1.81
			c0,3.07,1.42,4.61,4.27,4.61c1.4,0,2.47-0.42,3.22-1.26C73.75,113.11,74.13,111.99,74.13,110.6z"/>
	</g>
	<g>
		<path class="st4" d="M93.83,100.86c1.52,0,2.89,0.22,4.11,0.67c1.22,0.44,2.26,1.06,3.12,1.85c0.86,0.79,1.52,1.73,1.98,2.82
			c0.46,1.09,0.69,2.29,0.69,3.6c0,1.13-0.16,2.17-0.48,3.13c-0.32,0.96-0.75,1.87-1.3,2.74c-0.55,0.87-1.19,1.71-1.91,2.52
			c-0.73,0.81-1.5,1.63-2.31,2.46l-6.02,6.17c0.77-0.23,1.54-0.4,2.29-0.54c0.75-0.13,1.46-0.2,2.12-0.2h5.75
			c0.7,0,1.26,0.19,1.67,0.58c0.41,0.39,0.61,0.9,0.61,1.53v3.8H82.5v-2.11c0-0.41,0.08-0.85,0.25-1.31
			c0.17-0.47,0.46-0.89,0.89-1.27l8.88-8.94c0.76-0.76,1.42-1.49,1.99-2.18c0.56-0.69,1.03-1.37,1.39-2.04
			c0.37-0.67,0.64-1.34,0.82-2.01c0.18-0.67,0.27-1.38,0.27-2.12c0-1.23-0.29-2.17-0.88-2.82c-0.58-0.66-1.48-0.98-2.67-0.98
			c-0.49,0-0.94,0.07-1.35,0.21c-0.41,0.14-0.78,0.33-1.1,0.57c-0.32,0.24-0.6,0.52-0.83,0.85c-0.23,0.32-0.42,0.68-0.56,1.06
			c-0.23,0.63-0.51,1.09-0.86,1.37c-0.35,0.28-0.81,0.42-1.41,0.42c-0.14,0-0.29-0.01-0.45-0.02c-0.16-0.01-0.33-0.03-0.5-0.06
			l-3.47-0.61c0.23-1.54,0.66-2.87,1.3-4.02c0.64-1.14,1.44-2.09,2.39-2.85c0.95-0.76,2.04-1.33,3.27-1.7
			C91.1,101.04,92.42,100.86,93.83,100.86z"/>
	</g>
	<g>
		<path class="st4" d="M106.89,128.67c0-0.51,0.09-0.98,0.29-1.42c0.19-0.44,0.45-0.82,0.78-1.14c0.33-0.32,0.72-0.58,1.17-0.77
			c0.45-0.19,0.94-0.29,1.48-0.29c0.52,0,1.01,0.1,1.46,0.29c0.45,0.19,0.85,0.45,1.18,0.77c0.34,0.32,0.6,0.7,0.79,1.14
			c0.19,0.44,0.29,0.91,0.29,1.42s-0.09,0.98-0.29,1.43c-0.19,0.44-0.45,0.83-0.79,1.15c-0.34,0.32-0.73,0.58-1.18,0.76
			s-0.94,0.27-1.46,0.27c-0.54,0-1.03-0.09-1.48-0.27c-0.45-0.18-0.84-0.44-1.17-0.76c-0.33-0.32-0.59-0.71-0.78-1.15
			C106.99,129.66,106.89,129.18,106.89,128.67z"/>
	</g>
	<g>
		<path class="st4" d="M128.92,100.86c1.52,0,2.87,0.21,4.06,0.64c1.18,0.43,2.18,1.01,3,1.74c0.82,0.73,1.44,1.58,1.86,2.55
			c0.42,0.97,0.63,1.98,0.63,3.05c0,0.97-0.1,1.83-0.3,2.57c-0.2,0.74-0.49,1.38-0.88,1.92c-0.39,0.54-0.87,1-1.44,1.38
			c-0.57,0.38-1.22,0.7-1.95,0.95c3.41,1.18,5.12,3.5,5.12,6.95c0,1.64-0.3,3.06-0.89,4.27c-0.59,1.21-1.38,2.22-2.38,3.02
			c-0.99,0.8-2.15,1.41-3.46,1.81c-1.31,0.4-2.68,0.6-4.1,0.6c-1.47,0-2.77-0.16-3.91-0.48c-1.14-0.32-2.16-0.81-3.04-1.48
			c-0.89-0.67-1.67-1.52-2.34-2.57c-0.67-1.04-1.25-2.28-1.74-3.72l2.92-1.18c0.25-0.11,0.5-0.19,0.75-0.23
			c0.25-0.04,0.49-0.06,0.73-0.06c0.45,0,0.86,0.09,1.22,0.26c0.36,0.18,0.63,0.43,0.81,0.77c0.63,1.17,1.31,2.02,2.02,2.55
			c0.71,0.53,1.55,0.79,2.5,0.79c0.73,0,1.37-0.12,1.91-0.37c0.54-0.25,0.99-0.56,1.35-0.95c0.36-0.39,0.63-0.83,0.81-1.32
			c0.18-0.49,0.27-0.99,0.27-1.5c0-0.66-0.05-1.26-0.14-1.79c-0.09-0.53-0.35-0.98-0.77-1.36c-0.42-0.38-1.06-0.67-1.91-0.88
			c-0.85-0.2-2.04-0.31-3.56-0.31v-4.52c1.28,0,2.32-0.1,3.11-0.3c0.79-0.2,1.4-0.47,1.83-0.81c0.43-0.35,0.72-0.76,0.86-1.26
			c0.14-0.49,0.21-1.04,0.21-1.63c0-1.21-0.29-2.15-0.88-2.8c-0.59-0.66-1.48-0.98-2.67-0.98c-0.49,0-0.94,0.07-1.35,0.21
			c-0.41,0.14-0.78,0.33-1.1,0.57c-0.32,0.24-0.6,0.52-0.84,0.85c-0.23,0.32-0.42,0.68-0.56,1.06c-0.23,0.63-0.51,1.09-0.86,1.37
			c-0.35,0.28-0.81,0.42-1.41,0.42c-0.14,0-0.29-0.01-0.45-0.02c-0.16-0.01-0.33-0.03-0.5-0.06l-3.47-0.61
			c0.23-1.54,0.66-2.87,1.3-4.02c0.64-1.14,1.44-2.09,2.39-2.85c0.95-0.76,2.04-1.33,3.27-1.7
			C126.19,101.04,127.51,100.86,128.92,100.86z"/>
	</g>
	<g>
		<path class="st4" d="M155.93,108.66c0,1.13-0.2,2.16-0.61,3.09c-0.41,0.93-0.95,1.73-1.63,2.4c-0.68,0.67-1.46,1.19-2.36,1.55
			c-0.9,0.37-1.83,0.55-2.8,0.55c-1.07,0-2.05-0.18-2.95-0.55c-0.9-0.37-1.67-0.88-2.33-1.55c-0.66-0.67-1.17-1.47-1.53-2.4
			c-0.37-0.93-0.55-1.96-0.55-3.09c0-1.17,0.18-2.23,0.55-3.18c0.37-0.95,0.88-1.77,1.53-2.44c0.66-0.68,1.43-1.2,2.33-1.57
			c0.89-0.37,1.88-0.56,2.95-0.56s2.06,0.19,2.97,0.56c0.91,0.37,1.69,0.9,2.35,1.57c0.66,0.68,1.17,1.49,1.53,2.44
			C155.75,106.42,155.93,107.49,155.93,108.66z M165.61,102.17c0.21-0.24,0.47-0.46,0.78-0.67c0.31-0.2,0.74-0.31,1.29-0.31h4.78
			l-23.21,29.87c-0.21,0.27-0.48,0.49-0.79,0.67c-0.32,0.18-0.7,0.26-1.15,0.26h-4.9L165.61,102.17z M150.9,108.66
			c0-0.72-0.06-1.31-0.18-1.79c-0.12-0.47-0.29-0.85-0.5-1.13c-0.21-0.28-0.46-0.48-0.75-0.59c-0.29-0.11-0.6-0.17-0.94-0.17
			c-0.34,0-0.65,0.06-0.93,0.17c-0.28,0.11-0.52,0.31-0.72,0.59c-0.2,0.28-0.35,0.66-0.47,1.13c-0.11,0.47-0.17,1.07-0.17,1.79
			c0,0.68,0.06,1.24,0.17,1.69c0.11,0.45,0.27,0.81,0.47,1.08c0.2,0.27,0.44,0.46,0.72,0.57c0.28,0.11,0.59,0.17,0.93,0.17
			c0.34,0,0.65-0.06,0.94-0.17c0.29-0.11,0.54-0.3,0.75-0.57c0.21-0.27,0.38-0.63,0.5-1.08C150.84,109.9,150.9,109.33,150.9,108.66z
			 M173.65,124.76c0,1.13-0.2,2.16-0.61,3.1c-0.41,0.94-0.95,1.74-1.63,2.41c-0.68,0.67-1.46,1.19-2.36,1.55
			c-0.9,0.37-1.83,0.55-2.8,0.55c-1.07,0-2.05-0.18-2.95-0.55c-0.9-0.37-1.67-0.88-2.33-1.55c-0.66-0.67-1.17-1.47-1.53-2.41
			c-0.37-0.94-0.55-1.97-0.55-3.1c0-1.17,0.18-2.23,0.55-3.18c0.37-0.95,0.88-1.76,1.53-2.44c0.66-0.68,1.43-1.2,2.33-1.57
			c0.89-0.37,1.88-0.56,2.95-0.56c1.07,0,2.06,0.19,2.97,0.56c0.91,0.37,1.69,0.9,2.35,1.57c0.66,0.68,1.17,1.49,1.53,2.44
			C173.46,122.53,173.65,123.59,173.65,124.76z M168.61,124.76c0-0.7-0.06-1.29-0.18-1.77c-0.12-0.47-0.29-0.85-0.5-1.13
			c-0.21-0.28-0.46-0.48-0.75-0.59c-0.29-0.11-0.6-0.17-0.94-0.17c-0.34,0-0.65,0.06-0.93,0.17c-0.28,0.11-0.52,0.31-0.72,0.59
			c-0.2,0.28-0.35,0.66-0.47,1.13c-0.11,0.47-0.17,1.06-0.17,1.77c0,0.68,0.06,1.24,0.17,1.69c0.11,0.45,0.27,0.81,0.47,1.08
			c0.2,0.27,0.44,0.46,0.72,0.57c0.28,0.11,0.59,0.17,0.93,0.17c0.34,0,0.65-0.06,0.94-0.17c0.29-0.11,0.54-0.3,0.75-0.57
			c0.21-0.27,0.38-0.63,0.5-1.08C168.55,126,168.61,125.44,168.61,124.76z"/>
	</g>
</g>
</svg>
